<svg width="210" height="112" viewBox="0 0 210 112" fill="none" xmlns="http://www.w3.org/2000/svg">
<path d="M190.889 78.669C190.152 78.669 189.556 78.0715 189.556 77.3345C189.556 76.5975 190.152 76 190.889 76H197.174C197.911 76 198.508 76.5975 198.508 77.3345C198.508 78.0715 197.911 78.669 197.174 78.669H190.889Z" fill="white"/>
<path d="M184.721 79.4731C185.241 79.9943 185.241 80.8392 184.721 81.3604L180.276 85.8087C179.755 86.3299 178.911 86.3299 178.391 85.8087C177.87 85.2876 177.87 84.4426 178.391 83.9214L182.835 79.4731C183.356 78.9519 184.2 78.9519 184.721 79.4731Z" fill="white"/>
<path d="M194.444 83.5306C187.326 83.5306 181.556 89.3062 181.556 96.4308C181.556 103.555 187.326 109.331 194.444 109.331C201.563 109.331 207.333 103.555 207.333 96.4308C207.333 95.6938 207.93 95.0963 208.667 95.0963C209.403 95.0963 210 95.6938 210 96.4308C210 105.029 203.036 112 194.444 112C185.853 112 178.889 105.029 178.889 96.4308C178.889 87.8321 185.853 80.8616 194.444 80.8616C195.181 80.8616 195.778 81.459 195.778 82.1961C195.778 82.9331 195.181 83.5306 194.444 83.5306Z" fill="white"/>
<path d="M203.668 88.1822C204.081 87.651 204.034 86.8952 203.558 86.4193C203.083 85.9434 202.328 85.8963 201.797 86.3095L196.161 90.6965L192.479 93.3291C191.692 93.8915 191.225 94.7995 191.225 95.767C191.225 97.4216 192.566 98.7629 194.219 98.7629C195.185 98.7629 196.093 98.2956 196.654 97.5083L199.285 93.8226L203.668 88.1822Z" fill="white"/>
</svg>
